# xmcd CD database file
#
# Track frame offsets:
#	150
#	16245
#	31075
#	51150
#
# Disc length: 984 seconds
#
# Revision: 0
# Processed by: cddbd v1.5.1PL0 Copyright (c) Steve Scherf et al.
# Submitted via: CDex 1.51
#
DISCID=2403d604
DTITLE=まにきゅあ団 - マニキュア団
DYEAR=1993
DGENRE=Techno
TTITLE0=機械の王国
TTITLE1=ぷあぷあ
TTITLE2=ときめきシュガーベビー
TTITLE3=マニキュア団のテーマ
EXTD=YEAR: 1993
EXTT0=
EXTT1=
EXTT2=
EXTT3=
PLAYORDER=
